<svg width="36" height="36" viewBox="0 0 36 36" fill="none" xmlns="http://www.w3.org/2000/svg">
<g clip-path="url(#clip0_200_486)">
<path d="M33.4277 14.574H35.1377V21.4252H33.4277V14.574Z" fill="#5A3429"/>
<path d="M11.1423 14.5743H12.8523V12.853H14.5735V11.143H21.4248V12.853H23.146V11.143H28.2873V12.853H29.9973V26.5668H31.7185V23.1468H33.4285V21.4255H31.7185V14.5743H33.4285V12.853H31.7185V6.00177H29.9973V7.71177H28.2873V6.00177H24.856V4.28052H12.8523V6.00177H11.1423V7.71177H9.43227V11.143H7.71102V6.00177H6.00102V11.143H4.29102V12.853H11.1423V14.5743Z" fill="#5A3429"/>
<path d="M28.2871 26.5667H29.9971V28.2879H28.2871V26.5667Z" fill="#5A3429"/>
<path d="M28.2871 4.28052H29.9971V6.00177H28.2871V4.28052Z" fill="#5A3429"/>
<path d="M26.5645 23.1467H28.2857V24.8567H26.5645V23.1467Z" fill="#5A3429"/>
<path d="M26.5645 17.9944H28.2857V21.4256H26.5645V17.9944Z" fill="#5A3429"/>
<path d="M26.5645 2.57056H28.2857V4.28056H26.5645V2.57056Z" fill="#5A3429"/>
<path d="M12.8513 28.2878V31.7247H9.43125V33.4347H6V35.1447H33.4275V33.4347H29.9963V31.7247H26.565V30.0035H28.2863V28.2935L12.8513 28.2878ZM24.855 33.4291H18.0037V31.7247H14.5725V30.0035H24.8606L24.855 33.4291Z" fill="#5A3429"/>
<path d="M21.4238 24.8567H26.5651V26.5667H21.4238V24.8567Z" fill="#5A3429"/>
<path d="M19.7148 23.1467H21.4248V24.8567H19.7148V23.1467Z" fill="#5A3429"/>
<path d="M18.0039 17.9944H19.7139V21.4256H18.0039V17.9944Z" fill="#5A3429"/>
<path d="M18.0039 12.853H21.4239V14.5743H18.0039V12.853Z" fill="#5A3429"/>
<path d="M12.8517 14.5741H14.573V21.4253H12.8517V14.5741Z" fill="#5A3429"/>
<path d="M11.1406 0.860596H26.5644V2.5706H11.1406V0.860596Z" fill="#5A3429"/>
<path d="M11.1406 26.5667H12.8506V28.2879H11.1406V26.5667Z" fill="#5A3429"/>
<path d="M11.1406 21.4258H12.8506V23.147H11.1406V21.4258Z" fill="#5A3429"/>
<path d="M4.29102 23.1467V24.8567H9.43227V26.5667H11.1423V23.1467H4.29102Z" fill="#5A3429"/>
<path d="M9.43359 2.57056H11.1436V4.28056H9.43359V2.57056Z" fill="#5A3429"/>
<path d="M7.71094 4.28052H9.43219V6.00177H7.71094V4.28052Z" fill="#5A3429"/>
<path d="M6 14.574H7.71V16.284H6V14.574Z" fill="#5A3429"/>
<path d="M4.29102 16.2844H6.00102V19.7157H4.29102V16.2844Z" fill="#5A3429"/>
<path d="M2.56854 21.4257H4.28979V23.1469H2.56854V21.4257Z" fill="#5A3429"/>
<path d="M2.56854 12.853H4.28979V14.5742H2.56854V12.853Z" fill="#5A3429"/>
<path d="M0.859314 14.5741H2.56931V21.4253H0.859314V14.5741Z" fill="#5A3429"/>
</g>
<defs>
<clipPath id="clip0_200_486">
<rect width="36" height="36" fill="white"/>
</clipPath>
</defs>
</svg>
