<svg width="35" height="35" viewBox="0 0 35 35" fill="none" xmlns="http://www.w3.org/2000/svg">
<path d="M32.5703 13.7134H34.2803V20.5646H32.5703V13.7134Z" fill="#5A3429"/>
<path d="M10.2809 13.7137H11.9909V11.9924H13.7122V10.2824H20.5634V11.9924H22.2847V10.2824H27.4259V11.9924H29.1359V25.7062H30.8572V22.2862H32.5672V20.5649H30.8572V13.7137H32.5672V11.9924H30.8572V5.14117H29.1359V6.85117H27.4259V5.14117H23.9947V3.41992H11.9909V5.14117H10.2809V6.85117H8.57094V10.2824H6.84969V5.14117H5.13969V10.2824H3.42969V11.9924H10.2809V13.7137Z" fill="#5A3429"/>
<path d="M27.4297 25.7061H29.1397V27.4273H27.4297V25.7061Z" fill="#5A3429"/>
<path d="M27.4297 3.41992H29.1397V5.14117H27.4297V3.41992Z" fill="#5A3429"/>
<path d="M25.7031 22.2861H27.4244V23.9961H25.7031V22.2861Z" fill="#5A3429"/>
<path d="M25.7031 17.1338H27.4244V20.565H25.7031V17.1338Z" fill="#5A3429"/>
<path d="M25.7031 1.70996H27.4244V3.41996H25.7031V1.70996Z" fill="#5A3429"/>
<path d="M11.9919 27.4272V30.8641H8.57188V32.5741H5.14062V34.2841H32.5681V32.5741H29.1369V30.8641H25.7056V29.1429H27.4269V27.4329L11.9919 27.4272ZM23.9956 32.5685H17.1444V30.8641H13.7131V29.1429H24.0012L23.9956 32.5685Z" fill="#5A3429"/>
<path d="M20.5625 23.9961H25.7037V25.7061H20.5625V23.9961Z" fill="#5A3429"/>
<path d="M18.8555 22.2861H20.5655V23.9961H18.8555V22.2861Z" fill="#5A3429"/>
<path d="M17.1445 17.1338H18.8545V20.565H17.1445V17.1338Z" fill="#5A3429"/>
<path d="M17.1445 11.9924H20.5645V13.7137H17.1445V11.9924Z" fill="#5A3429"/>
<path d="M11.9922 13.7134H13.7134V20.5646H11.9922V13.7134Z" fill="#5A3429"/>
<path d="M10.2812 0H25.705V1.71H10.2812V0Z" fill="#5A3429"/>
<path d="M10.2812 25.7061H11.9913V27.4273H10.2812V25.7061Z" fill="#5A3429"/>
<path d="M10.2812 20.5652H11.9913V22.2864H10.2812V20.5652Z" fill="#5A3429"/>
<path d="M3.42969 22.2861V23.9961H8.57094V25.7061H10.2809V22.2861H3.42969Z" fill="#5A3429"/>
<path d="M8.57422 1.70996H10.2842V3.41996H8.57422V1.70996Z" fill="#5A3429"/>
<path d="M6.85156 3.41992H8.57281V5.14117H6.85156V3.41992Z" fill="#5A3429"/>
<path d="M5.14062 13.7134H6.85062V15.4234H5.14062V13.7134Z" fill="#5A3429"/>
<path d="M3.42969 15.4238H5.13969V18.8551H3.42969V15.4238Z" fill="#5A3429"/>
<path d="M1.71094 20.5652H3.43219V22.2864H1.71094V20.5652Z" fill="#5A3429"/>
<path d="M1.71094 11.9924H3.43219V13.7137H1.71094V11.9924Z" fill="#5A3429"/>
<path d="M0 13.7134H1.71V20.5646H0V13.7134Z" fill="#5A3429"/>
</svg>

