<svg width="24" height="24" viewBox="0 0 24 24" fill="none" xmlns="http://www.w3.org/2000/svg">
<rect width="24" height="24" rx="2" fill="#FFB95B"/>
<g clip-path="url(#clip0_441_19)">
<path d="M7.33203 12.6668C7.33203 12.3132 7.47251 11.9741 7.72256 11.724C7.9726 11.474 8.31174 11.3335 8.66536 11.3335H15.332C15.6857 11.3335 16.0248 11.474 16.2748 11.724C16.5249 11.9741 16.6654 12.3132 16.6654 12.6668V16.6668C16.6654 17.0205 16.5249 17.3596 16.2748 17.6096C16.0248 17.8597 15.6857 18.0002 15.332 18.0002H8.66536C8.31174 18.0002 7.9726 17.8597 7.72256 17.6096C7.47251 17.3596 7.33203 17.0205 7.33203 16.6668V12.6668Z" stroke="#321D00" stroke-linecap="round" stroke-linejoin="round"/>
<path d="M11.332 14.6667C11.332 14.8435 11.4023 15.013 11.5273 15.1381C11.6523 15.2631 11.8219 15.3333 11.9987 15.3333C12.1755 15.3333 12.3451 15.2631 12.4701 15.1381C12.5951 15.013 12.6654 14.8435 12.6654 14.6667C12.6654 14.4899 12.5951 14.3203 12.4701 14.1953C12.3451 14.0702 12.1755 14 11.9987 14C11.8219 14 11.6523 14.0702 11.5273 14.1953C11.4023 14.3203 11.332 14.4899 11.332 14.6667Z" stroke="#321D00" stroke-linecap="round" stroke-linejoin="round"/>
<path d="M9.33203 11.3333V8.66667C9.33203 7.95942 9.61298 7.28115 10.1131 6.78105C10.6132 6.28095 11.2915 6 11.9987 6C12.7059 6 13.3842 6.28095 13.8843 6.78105C14.3844 7.28115 14.6654 7.95942 14.6654 8.66667V11.3333" stroke="#321D00" stroke-linecap="round" stroke-linejoin="round"/>
</g>
<defs>
<clipPath id="clip0_441_19">
<rect width="16" height="16" fill="white" transform="translate(4 4)"/>
</clipPath>
</defs>
</svg>
