<svg width="32" height="32" viewBox="0 0 32 32" fill="none" xmlns="http://www.w3.org/2000/svg">
<g clip-path="url(#clip0_200_1015)">
<path d="M10.9707 20.0133H8V17.3333H11.0147C13.5187 17.3333 13.6853 20.0133 10.9707 20.0133ZM19.9813 16.444H24.0053C23.8493 14.1573 20.3653 13.808 19.9813 16.444ZM10.9093 12H8V14.6667H11.1853C13.416 14.6667 13.768 12 10.9093 12ZM32 6.66667V25.3333C32 29.0147 29.016 32 25.3333 32H6.66667C2.984 32 0 29.0147 0 25.3333V6.66667C0 2.98533 2.984 0 6.66667 0H25.3333C29.016 0 32 2.98533 32 6.66667ZM18.6667 10.6667H25.3333V9.33333H18.6667V10.6667ZM13.9307 15.4907C16.4733 14.192 16.38 9.424 11.5133 9.352H5.33333V22.656H11.0813C17.1107 22.656 17.008 16.6107 13.9307 15.4907ZM26.58 16.2933C26.2147 13.9427 24.5427 12.36 21.8027 12.36C19.0107 12.36 17.3333 14.1467 17.3333 17.6227C17.3333 21.1307 19.156 22.6667 21.888 22.6667C24.62 22.6667 26.0293 21.1533 26.4213 20H23.6067C22.6253 21.14 19.7493 20.6947 19.9173 18.196H26.664C26.6773 17.3507 26.648 16.744 26.58 16.2933Z" fill="#CECECE"/>
</g>
<defs>
<clipPath id="clip0_200_1015">
<rect width="32" height="32" fill="white"/>
</clipPath>
</defs>
</svg>
