<svg width="328" height="328" viewBox="0 0 328 328" fill="none" xmlns="http://www.w3.org/2000/svg">
<rect opacity="0.0344828" x="28.3625" y="254.364" width="208.095" height="250.898" transform="rotate(-84 28.3625 254.364)" stroke="#818181" stroke-width="1.46294"/>
<rect opacity="0.0689655" x="23.8213" y="247.141" width="208.095" height="250.898" transform="rotate(-81 23.8213 247.141)" stroke="#818181" stroke-width="1.46294"/>
<rect opacity="0.103448" x="19.6606" y="239.691" width="208.095" height="250.898" transform="rotate(-78 19.6606 239.691)" stroke="#818181" stroke-width="1.46294"/>
<rect opacity="0.137931" x="15.8978" y="232.034" width="208.095" height="250.898" transform="rotate(-75 15.8978 232.034)" stroke="#818181" stroke-width="1.46294"/>
<rect opacity="0.172414" x="12.5387" y="224.189" width="208.095" height="250.898" transform="rotate(-72 12.5387 224.189)" stroke="#818181" stroke-width="1.46294"/>
<rect opacity="0.206897" x="9.59541" y="216.18" width="208.095" height="250.898" transform="rotate(-69 9.59541 216.18)" stroke="#818181" stroke-width="1.46294"/>
<rect opacity="0.241379" x="7.07903" y="208.027" width="208.095" height="250.898" transform="rotate(-66 7.07903 208.027)" stroke="#818181" stroke-width="1.46294"/>
<rect opacity="0.275862" x="4.98969" y="199.754" width="208.095" height="250.898" transform="rotate(-63 4.98969 199.754)" stroke="#818181" stroke-width="1.46294"/>
<rect opacity="0.310345" x="3.33515" y="191.383" width="208.095" height="250.898" transform="rotate(-60 3.33515 191.383)" stroke="#818181" stroke-width="1.46294"/>
<rect opacity="0.344828" x="2.12123" y="182.937" width="208.095" height="250.898" transform="rotate(-57 2.12123 182.937)" stroke="#818181" stroke-width="1.46294"/>
<rect opacity="0.37931" x="1.35186" y="174.438" width="208.095" height="250.898" transform="rotate(-54 1.35186 174.438)" stroke="#818181" stroke-width="1.46294"/>
<rect opacity="0.413793" x="1.02879" y="165.912" width="208.095" height="250.898" transform="rotate(-51 1.02879 165.912)" stroke="#818181" stroke-width="1.46294"/>
<rect opacity="0.448276" x="1.15218" y="157.38" width="208.095" height="250.898" transform="rotate(-48 1.15218 157.38)" stroke="#818181" stroke-width="1.46294"/>
<rect opacity="0.482759" x="1.72196" y="148.866" width="208.095" height="250.898" transform="rotate(-45 1.72196 148.866)" stroke="#818181" stroke-width="1.46294"/>
<rect opacity="0.517241" x="2.73616" y="140.394" width="208.095" height="250.898" transform="rotate(-42 2.73616 140.394)" stroke="#818181" stroke-width="1.46294"/>
<rect opacity="0.551724" x="4.19285" y="131.987" width="208.095" height="250.898" transform="rotate(-39 4.19285 131.987)" stroke="#818181" stroke-width="1.46294"/>
<rect opacity="0.586207" x="6.0863" y="123.667" width="208.095" height="250.898" transform="rotate(-36 6.0863 123.667)" stroke="#818181" stroke-width="1.46294"/>
<rect opacity="0.62069" x="8.41416" y="115.457" width="208.095" height="250.898" transform="rotate(-33 8.41416 115.457)" stroke="#818181" stroke-width="1.46294"/>
<rect opacity="0.655172" x="11.1691" y="107.382" width="208.095" height="250.898" transform="rotate(-30 11.1691 107.382)" stroke="#818181" stroke-width="1.46294"/>
<rect opacity="0.689655" x="14.3414" y="99.4603" width="208.095" height="250.898" transform="rotate(-27 14.3414 99.4603)" stroke="#818181" stroke-width="1.46294"/>
<rect opacity="0.724138" x="17.9247" y="91.7154" width="208.095" height="250.898" transform="rotate(-24 17.9247 91.7154)" stroke="#818181" stroke-width="1.46294"/>
<rect opacity="0.758621" x="21.9079" y="84.1703" width="208.095" height="250.898" transform="rotate(-21 21.9079 84.1703)" stroke="#818181" stroke-width="1.46294"/>
<rect opacity="0.793103" x="26.2791" y="76.8432" width="208.095" height="250.898" transform="rotate(-18 26.2791 76.8432)" stroke="#818181" stroke-width="1.46294"/>
<rect opacity="0.827586" x="31.0287" y="69.7555" width="208.095" height="250.898" transform="rotate(-15 31.0287 69.7555)" stroke="#818181" stroke-width="1.46294"/>
<rect opacity="0.862069" x="36.1449" y="62.9252" width="208.095" height="250.898" transform="rotate(-12 36.1449 62.9252)" stroke="#818181" stroke-width="1.46294"/>
<rect opacity="0.896552" x="41.6084" y="56.3717" width="208.095" height="250.898" transform="rotate(-9 41.6084 56.3717)" stroke="#818181" stroke-width="1.46294"/>
<rect opacity="0.931035" x="47.4094" y="50.1139" width="208.095" height="250.898" transform="rotate(-6 47.4094 50.1139)" stroke="#818181" stroke-width="1.46294"/>
<rect opacity="0.965517" x="53.5304" y="44.1673" width="208.095" height="250.898" transform="rotate(-3 53.5304 44.1673)" stroke="#818181" stroke-width="1.46294"/>
<rect x="59.9522" y="38.5503" width="208.095" height="250.898" stroke="#818181" stroke-width="1.46294"/>
<path d="M94.0532 114.404H101.538V123.592H117.554V114.404H125.056V138.579H117.554V129.391H101.538V138.579H94.0532V114.404ZM128.95 114.404H136.402L148.135 133.538L159.886 114.404H167.371V138.579H159.886V125.177L151.76 138.545H144.443L136.402 125.143V138.579H128.95V114.404ZM171.232 114.404H178.683L194.699 131.819V114.404H202.201V138.579H194.699L178.683 122.243V138.579H171.232V114.404ZM220.357 126.121H233.945V128.953C233.754 130.313 233.372 131.555 232.799 132.679C232.226 133.791 231.512 134.741 230.658 135.528C229.815 136.314 228.837 136.978 227.725 137.517C226.612 138.056 225.415 138.455 224.134 138.714C222.853 138.972 221.498 139.102 220.071 139.102C218.126 139.102 216.311 138.832 214.626 138.293C212.951 137.742 211.473 136.955 210.192 135.932C208.922 134.898 207.921 133.572 207.191 131.954C206.46 130.324 206.095 128.492 206.095 126.458C206.095 124.424 206.46 122.597 207.191 120.979C207.921 119.36 208.922 118.04 210.192 117.017C211.473 115.994 212.951 115.213 214.626 114.674C216.311 114.134 218.126 113.864 220.071 113.864C221.88 113.864 223.549 114.05 225.078 114.421C226.606 114.792 227.994 115.354 229.242 116.107C230.489 116.86 231.518 117.871 232.327 119.141C233.136 120.4 233.664 121.872 233.912 123.558H226.325C226.067 122.603 225.617 121.833 224.977 121.249C224.336 120.653 223.622 120.254 222.836 120.052C222.049 119.838 221.127 119.731 220.071 119.731C218.205 119.731 216.66 120.321 215.435 121.501C214.221 122.67 213.614 124.334 213.614 126.492C213.614 127.93 213.906 129.172 214.491 130.217C215.086 131.251 215.862 132.021 216.817 132.527C217.772 133.021 218.857 133.269 220.071 133.269C222.476 133.269 224.263 132.504 225.432 130.976H220.357V126.121ZM96.3122 184.002C96.3122 183.991 96.3122 183.895 96.3122 183.715C96.3235 183.535 96.3291 183.384 96.3291 183.26C96.3291 183.136 96.3122 182.951 96.2785 182.704C96.256 182.456 96.2167 182.249 96.1605 182.08C96.1043 181.9 96.02 181.687 95.9076 181.439C95.7952 181.192 95.6604 180.978 95.503 180.799C95.3457 180.619 95.1434 180.439 94.8961 180.259C94.6488 180.068 94.3679 179.916 94.0532 179.804C93.7497 179.692 93.3788 179.602 92.9405 179.534C92.5022 179.467 92.0245 179.439 91.5075 179.45C90.3387 179.45 89.5463 179.501 89.1305 179.602C88.1639 179.86 87.5683 180.49 87.3435 181.49C87.2985 181.816 87.3491 182.114 87.4952 182.383C87.6413 182.653 87.793 182.861 87.9504 183.007C88.119 183.153 88.3718 183.339 88.709 183.563C89.6868 184.103 91.1535 184.654 93.1091 185.216C95.1096 185.755 96.5595 186.193 97.4586 186.531C101.831 188.205 103.932 190.425 103.764 193.19C103.651 194.786 103.044 196.112 101.943 197.168C100.853 198.214 99.403 198.967 97.5935 199.427C95.7952 199.888 93.643 200.113 91.1367 200.102C89.7318 200.09 88.3999 199.978 87.1412 199.765C85.8936 199.551 84.7079 199.214 83.584 198.753C82.4714 198.281 81.5104 197.702 80.7012 197.017C79.9032 196.331 79.2682 195.482 78.7962 194.471C78.3242 193.448 78.0881 192.307 78.0881 191.049H85.9274C85.8824 191.667 85.933 192.223 86.0791 192.718C86.2252 193.212 86.4163 193.617 86.6523 193.931C86.8883 194.235 87.1861 194.505 87.5458 194.741C87.9054 194.965 88.237 195.134 88.5404 195.246C88.8551 195.348 89.2035 195.432 89.5857 195.499C89.979 195.556 90.26 195.589 90.4286 195.6C90.6084 195.6 90.7995 195.6 91.0018 195.6C91.7436 195.6 92.3842 195.539 92.9237 195.415C93.4631 195.28 93.8621 195.106 94.1206 194.892C94.3904 194.668 94.5927 194.42 94.7275 194.151C94.8624 193.881 94.9073 193.606 94.8624 193.325C94.8287 193.044 94.7556 192.774 94.6432 192.515C94.5421 192.257 94.4072 192.026 94.2386 191.824C94.07 191.622 93.8958 191.47 93.716 191.369C92.9967 190.919 92.1425 190.52 91.1535 190.172C90.1757 189.824 89.2373 189.543 88.3381 189.329C87.4502 189.116 86.523 188.885 85.5565 188.638C84.5899 188.391 83.7076 188.098 82.9097 187.761C82.1229 187.424 81.4036 187.008 80.7518 186.514C80.0999 186.019 79.5773 185.367 79.1839 184.558C78.7906 183.749 78.5602 182.794 78.4927 181.692C78.5714 180.905 78.7288 180.214 78.9648 179.619C79.212 179.023 79.6335 178.438 80.2292 177.865C80.6113 177.494 81.0328 177.163 81.4936 176.871C81.9656 176.567 82.4489 176.314 82.9434 176.112C83.4379 175.91 83.9268 175.73 84.4101 175.573C84.8934 175.415 85.3991 175.297 85.9274 175.218C86.4556 175.129 86.9276 175.056 87.3435 174.999C87.7593 174.932 88.1976 174.893 88.6584 174.881C89.1305 174.87 89.4901 174.864 89.7374 174.864C89.9959 174.853 90.2769 174.853 90.5803 174.864C90.895 174.864 91.058 174.864 91.0692 174.864C92.7776 174.864 94.3285 175.005 95.7222 175.286C97.1158 175.556 98.251 175.887 99.1276 176.281C100.015 176.674 100.791 177.18 101.454 177.798C102.117 178.416 102.612 178.972 102.938 179.467C103.264 179.961 103.533 180.546 103.747 181.22C103.96 181.883 104.084 182.372 104.118 182.687C104.163 182.99 104.202 183.356 104.236 183.783C104.247 183.884 104.253 183.957 104.253 184.002H96.3122ZM108.164 175.404H115.649V184.592H131.665V175.404H139.167V199.579H131.665V190.391H115.649V199.579H108.164V175.404ZM143.061 199.579V175.404H160.914C162.937 175.404 164.651 176.106 166.056 177.511C167.461 178.916 168.163 180.63 168.163 182.653C168.163 183.844 167.888 184.963 167.337 186.008C166.798 187.053 166.056 187.907 165.112 188.57C166.079 189.043 166.848 189.756 167.422 190.712C168.006 191.656 168.298 192.712 168.298 193.881V199.579H160.594V194.572C160.594 193.999 160.577 193.544 160.543 193.207C160.521 192.858 160.448 192.504 160.324 192.144C160.212 191.774 160.043 191.493 159.818 191.302C159.605 191.099 159.301 190.931 158.908 190.796C158.515 190.661 158.031 190.582 157.458 190.56H150.546V199.579H143.061ZM150.58 185.57H158.655C159.296 185.57 159.858 185.283 160.341 184.71C160.836 184.137 161.083 183.502 161.083 182.805C161.083 182.131 160.836 181.501 160.341 180.917C159.858 180.332 159.296 180.04 158.655 180.04H150.58V185.57ZM172.159 175.404H179.61L191.344 194.538L203.094 175.404H210.579V199.579H203.094V186.177L194.968 199.545H187.652L179.61 186.143V199.579H172.159V175.404ZM214.44 199.579L228.146 175.404H236.188L249.894 199.579H240.992L238.733 195.398H225.617L223.341 199.579H214.44ZM236.221 190.644L232.175 183.142H232.142L228.146 190.644H236.221Z" fill="#C4C4C4"/>
</svg>
