<svg width="117" height="65" viewBox="0 0 117 65" fill="none" xmlns="http://www.w3.org/2000/svg">
<path d="M10.1395 56.5486H7.95508V64.5126H10.1395C12.675 64.5126 14.3133 62.9511 14.3133 60.5306C14.3133 58.1102 12.675 56.5486 10.1395 56.5486ZM9.45686 57.993H10.081C11.8168 57.993 12.7725 58.8909 12.7725 60.5306C12.7725 62.1703 11.8168 63.0682 10.081 63.0682H9.45686V57.993Z" fill="#AB1F24"/>
<path d="M17.4937 56.5486H15.9725V64.5126H17.4937V56.5486Z" fill="#AB1F24"/>
<path d="M18.916 57.993H21.1394V64.5126H22.6412V57.993H24.8451V56.5486H18.916V57.993Z" fill="#AB1F24"/>
<path d="M30.715 56.5486L28.8817 59.7303L27.0288 56.5486H25.3125L28.121 61.3504V64.5126H29.6228V61.3504L32.3923 56.5486H30.715Z" fill="#AB1F24"/>
<path d="M48.2297 60.2964C48.6003 59.9255 48.7953 59.418 48.7953 58.7934C48.7953 57.427 47.8396 56.5486 46.3378 56.5486H43.5293V64.5126H46.4939C48.1127 64.5126 49.1463 63.5757 49.1463 62.1312C49.1463 61.3309 48.8343 60.6868 48.2297 60.2964ZM46.2793 57.9735C46.9619 57.9735 47.2935 58.2468 47.2935 58.8324C47.2935 59.418 47.0205 59.6913 46.3963 59.6913H45.0311V57.9735H46.2793ZM45.0506 61.0967H46.4158C47.2155 61.0967 47.6446 61.4285 47.6446 62.0922C47.6446 62.7559 47.2545 63.0877 46.4353 63.0877H45.0506V61.0967Z" fill="#AB1F24"/>
<path d="M52.3085 56.5486H50.7872V64.5126H52.3085V56.5486Z" fill="#AB1F24"/>
<path d="M59.7364 59.0861C59.7364 57.5636 58.6247 56.5486 56.9474 56.5486H54.4119V64.5126H55.9137V61.6042H56.8694L58.6637 64.5126H60.3996L58.3907 61.2919C59.2488 60.882 59.7364 60.1012 59.7364 59.0861ZM55.8942 57.993H56.8889C57.7666 57.993 58.1956 58.3639 58.1956 59.1057C58.1956 59.5741 58.0591 60.1793 56.8889 60.1793H55.8942V57.993Z" fill="#AB1F24"/>
<path d="M63.035 56.5486H61.5137V64.5126H66.3311V63.0877H63.035V56.5486Z" fill="#AB1F24"/>
<path d="M82.2037 61.6044H84.3491V62.6194C83.9005 62.9512 83.3154 63.1074 82.5937 63.1074C81.0919 63.1074 79.9997 62.0143 79.9997 60.4917C79.9997 58.9692 81.0334 57.8761 82.4767 57.8761C83.5299 57.8761 84.037 58.286 84.3881 58.6764L84.6611 58.9887L85.7338 57.9737L85.4608 57.6809C84.7001 56.8416 83.7249 56.4316 82.4767 56.4316C80.2143 56.4316 78.4395 58.2079 78.4395 60.4917C78.4395 62.8146 80.2143 64.5518 82.5742 64.5518C83.842 64.5518 84.8172 64.2005 85.6753 63.4587L85.8118 63.3416V60.1794H82.1842V61.6044" fill="#AB1F24"/>
<path d="M92.8968 59.0471C92.8968 57.5245 91.7851 56.5095 90.1077 56.5095H87.5723V64.4736H89.074V61.5651H90.0297L91.8241 64.4736H93.5599L91.551 61.2528C92.4092 60.8429 92.8968 60.0426 92.8968 59.0471ZM89.074 57.9345H90.0687C90.9464 57.9345 91.356 58.3053 91.356 59.0471C91.356 59.5156 91.2195 60.1207 90.0687 60.1207H89.074V57.9345Z" fill="#AB1F24"/>
<path d="M98.2793 56.4316C95.9973 56.4316 94.2225 58.2079 94.2225 60.4917C94.2225 62.7756 95.9973 64.5518 98.2793 64.5518C100.561 64.5518 102.356 62.7756 102.356 60.4917C102.356 58.2079 100.561 56.4316 98.2793 56.4316ZM98.2793 63.1074C96.8165 63.1074 95.7438 62.0143 95.7438 60.4917C95.7438 58.9692 96.8165 57.8761 98.2793 57.8761C99.7421 57.8761 100.815 58.9692 100.815 60.4917C100.815 62.0143 99.7421 63.1074 98.2793 63.1074Z" fill="#AB1F24"/>
<path d="M108.224 61.5846C108.224 62.5997 107.737 63.1072 106.801 63.1072C105.864 63.1072 105.377 62.5802 105.377 61.5846V56.5095H103.875V61.6237C103.875 63.4 105.026 64.5321 106.801 64.5321C108.575 64.5321 109.726 63.3805 109.726 61.6237V56.5095H108.224V61.5846Z" fill="#AB1F24"/>
<path d="M114.231 56.5095H111.715V64.4736H113.217V61.6237H114.211C115.908 61.6237 117 60.6282 117 59.0666C117.02 57.5245 115.928 56.5095 114.231 56.5095ZM113.236 57.9345H114.192C115.069 57.9345 115.479 58.3053 115.479 59.0666C115.479 59.8279 115.05 60.1792 114.192 60.1792H113.236V57.9345Z" fill="#AB1F24"/>
<path d="M0 64.4932H1.48228L2.1454 62.8535H4.64187L5.305 64.4932H6.80678L3.41314 56.2559L0 64.4932ZM2.69151 61.5067L3.39364 59.7694L4.09577 61.5067H2.69151Z" fill="#AB1F24"/>
<path d="M31.8496 64.5127H33.3319L33.9755 62.8731H36.472L37.1351 64.5127H38.6369L35.2432 56.2754L31.8496 64.5127ZM34.5216 61.5457L35.2237 59.8085L35.9259 61.5457H34.5216Z" fill="#AB1F24"/>
<path d="M67.2852 64.4932H68.7674L69.4306 62.8535H71.927L72.5902 64.4932H74.0919L70.6983 56.2559L67.2852 64.4932ZM69.9572 61.5067L70.6593 59.7694L71.3614 61.5067H69.9572Z" fill="#AB1F24"/>
<path d="M99.1003 31.8757L88.1392 36.9313L76.1055 21.9206L89.5435 0H99.1003V31.8757Z" fill="#AB1F24"/>
<path d="M99.0978 50.5951V31.8757L88.1367 36.9313L99.0978 50.5951Z" fill="#EF7032"/>
<path d="M76.104 21.9206L58.5117 0H89.5421L76.104 21.9206Z" fill="#EF7032"/>
<path d="M71.2671 29.8066L76.0845 21.9402L58.5117 0.0195312V26.2736H58.6287C63.2706 26.254 67.6004 27.5619 71.2671 29.8066Z" fill="#FFD35D"/>
<path d="M58.6287 26.2539H58.5117V50.595L71.2671 29.8065C67.5809 27.5617 63.2706 26.2539 58.6287 26.2539Z" fill="#AB1F24"/>
<path d="M80.7054 40.3668L88.1363 36.9313L76.1025 21.9207L71.2656 29.8066C75.3614 32.3051 78.6575 35.9749 80.7054 40.3668Z" fill="#EF7032"/>
<path d="M71.2671 29.8066L58.5117 50.6147L80.7069 40.3668C78.659 35.9749 75.3629 32.3052 71.2671 29.8066Z" fill="#D31F26"/>
<path d="M88.136 36.9314L80.7051 40.3669C82.1483 43.4705 82.9675 46.945 82.9675 50.6147H99.097L88.136 36.9314Z" fill="#FFD35D"/>
<path d="M58.5117 50.595H82.9498C82.9498 46.9448 82.1502 43.4703 80.7069 40.3472L58.5117 50.595Z" fill="#AB1F24"/>
<path d="M17.9434 31.8757L28.9044 36.9313L40.9382 21.9206L27.5002 0H17.9434V31.8757Z" fill="#AB1F24"/>
<path d="M17.9434 50.5951V31.8757L28.9044 36.9313L17.9434 50.5951Z" fill="#EF7032"/>
<path d="M40.9361 21.9206L58.5089 0H27.498L40.9361 21.9206Z" fill="#EF7032"/>
<path d="M45.753 29.8066L40.9355 21.9402L58.5083 0.0195312V26.2736H58.3913C53.769 26.254 49.4391 27.5619 45.753 29.8066Z" fill="#D31F26"/>
<path d="M58.3923 26.2539H58.5093V50.595L45.7734 29.8065C49.4401 27.5617 53.7699 26.2539 58.3923 26.2539Z" fill="#EF7032"/>
<path d="M36.3332 40.3668L28.9023 36.9313L40.9361 21.9207L45.7535 29.7871C41.6577 32.3051 38.3616 35.9749 36.3332 40.3668Z" fill="#EF7032"/>
<path d="M45.7543 29.8066L58.5096 50.6147L36.334 40.3668C38.3624 35.9749 41.6585 32.3052 45.7543 29.8066Z" fill="#D31F26"/>
<path d="M28.9044 36.9314L36.3353 40.3669C34.892 43.4705 34.0729 46.945 34.0729 50.6147H17.9434L28.9044 36.9314Z" fill="#FFD35D"/>
<path d="M58.5084 50.595H34.0703C34.0703 46.9448 34.87 43.4703 36.3327 40.3472L58.5084 50.595Z" fill="#AB1F24"/>
</svg>
