<svg width="102" height="64" viewBox="0 0 102 64" fill="none" xmlns="http://www.w3.org/2000/svg">
<g clip-path="url(#clip0_200_698)">
<path d="M56.8956 23.9712H60.188L60.4768 24.2022L61.17 25.1842L61.9786 26.2817L62.6718 27.2636L63.3649 28.1878L63.9425 28.9965L65.4444 31.0759L66.1375 32.0001L66.7151 32.8087L67.5238 33.9062L67.9859 34.5416V34.6571H68.1014V23.9712H71.2783L71.336 24.029V40.1445L70.874 40.2022H68.1592L67.6393 39.5669L66.8884 38.5272L66.3108 37.7185L65.5599 36.6788L64.7512 35.5813L63.2494 33.5019L62.7295 32.8087L61.9786 31.769L61.401 30.9604L60.5924 29.8629L60.188 29.2853L60.1303 40.1445L59.7259 40.2022H56.9534L56.8379 39.7979V24.029L56.8956 23.9712Z" fill="#4567A3"/>
<path d="M32.6361 23.7402H34.7155L35.7553 23.9135L36.9105 24.2601L37.8347 24.7222L38.6433 25.242L39.221 25.7041L40.0296 26.5128L40.6072 27.3215L41.1271 28.2456L41.5314 29.2854L41.7625 30.1518L41.9358 31.7691V32.5778L41.7047 34.2529L41.3581 35.4081L40.8383 36.5056L40.3762 37.1987L39.7986 37.9496L39.3942 38.354L38.7589 38.8738L37.8924 39.4514L36.9105 39.9135L35.7553 40.2601L34.7733 40.4334L34.1957 40.4911H33.156L31.7697 40.3179L30.6145 40.029L29.6903 39.6247L28.8238 39.1626L28.0152 38.5272L27.2065 37.7186L26.6289 36.9677L26.109 36.0435L25.7625 35.1771L25.5314 34.4262L25.3581 33.5597L25.2426 32.289L25.3004 31.076L25.4737 29.9785L25.8202 28.8233L26.3401 27.7258L27.0332 26.6861L27.7264 25.9352L28.3617 25.3576L29.3437 24.7222L30.4412 24.2023L31.6542 23.8558L32.6361 23.7402ZM33.2137 26.6283L32.4051 26.7438L31.5386 27.0327L30.9033 27.3792L30.1524 27.9568L29.6325 28.5345L29.0549 29.5164L28.7083 30.5561L28.5928 31.1915V32.9821L28.7661 33.8485L29.1127 34.7727L29.5747 35.5236L30.2101 36.2168L30.73 36.6789L31.4231 37.0832L32.2318 37.372L32.8672 37.4875H34.4845L35.4087 37.2565L36.3329 36.7944L36.8527 36.3901L37.4881 35.7547L38.008 34.946L38.3545 34.0796L38.5856 33.0976V31.1337L38.3545 30.1518L38.0657 29.4586L37.6036 28.65L37.0838 28.0146L36.5639 27.5525L35.6397 27.0327L34.7733 26.7438L34.0224 26.6283H33.2137Z" fill="#4467A3"/>
<path d="M12.1297 23.9712H18.368L19.4077 24.0867L20.563 24.4333L21.3139 24.8376L21.8915 25.2997L22.3536 25.7618L22.8157 26.5705L23.0467 27.2058L23.22 28.2456V28.7654L23.0467 29.6896L22.5846 30.6138L21.9492 31.3069L21.5449 31.6535V31.769L22.1225 32.1156L22.8157 32.751L23.3355 33.5596L23.5666 34.1373L23.7398 34.7726V36.2744L23.5088 37.2564L23.1045 38.0651L22.7001 38.5849L22.1803 39.1048L21.4294 39.5669L20.6207 39.9134L19.4077 40.1445L18.6568 40.2022H12.1875L12.1297 40.1445L12.072 39.1048V24.0867L12.1297 23.9712ZM15.2489 26.5705V30.4983L15.6532 30.556L18.4258 30.4983L19.1189 30.2095L19.581 29.8051L19.8698 29.2275L19.9276 28.3611L19.8121 27.7835L19.5232 27.3214L19.1189 26.917L18.6568 26.686L18.1947 26.5705H15.2489ZM15.2489 33.2131V37.3719H18.2525L19.1767 37.1986L19.6388 36.9676L20.1009 36.5633L20.3319 36.1589L20.4474 35.6391V34.8882L20.2741 34.3105L19.8698 33.7907L19.2922 33.4441L18.8301 33.2708L18.4835 33.2131H15.2489Z" fill="#4668A4"/>
<path d="M79.5946 23.9712H82.8871L83.1181 24.3178L84.2156 27.1481L84.7932 28.5921L85.4286 30.2095L86.4105 32.6932L86.9304 34.0217L87.3347 35.0037L87.6813 35.9279L88.5477 38.1228L89.2986 40.029L89.1253 40.2022H86.0062L85.7751 39.8557L84.7354 37.0831L84.5622 36.6788H77.9196L76.9954 39.1048L76.591 40.0867L76.4755 40.2022H73.2409L73.1831 40.029L74.165 37.5452L76.0712 32.6932L77.1686 29.9207L78.2084 27.2636L79.3636 24.3755L79.5369 24.029L79.5946 23.9712ZM81.1542 28.0145L80.6344 29.4586L79.9412 31.2492L79.1325 33.3864L79.017 33.7329L81.3275 33.7907L83.4647 33.7329L83.0603 32.5777L82.3094 30.6138L81.7318 29.112L81.2697 28.0145H81.1542Z" fill="#4568A3"/>
<path d="M44.477 23.9712H47.5961L47.6539 24.029V37.1986H54.643L54.7586 37.2564V40.1445L54.643 40.2022H44.5347L44.4192 40.1445V24.029L44.477 23.9712Z" fill="#4668A4"/>
<path d="M9.41568 12.7078H10.0511L10.2243 12.8233V51.2348L10.1666 51.3504L9.99329 51.4081H9.47344L9.30015 51.1771V12.881L9.41568 12.7078Z" fill="#4467A3"/>
<path d="M2.6002 17.9062H3.23558L3.40886 18.0218V45.9207L3.3511 46.1517L3.23558 46.2095H2.71572L2.48468 45.9785V18.0218L2.6002 17.9062Z" fill="#4467A3"/>
<path d="M89.0107 17.5596H89.5306L89.8194 17.6751L89.8771 17.7329V46.2094L89.7616 46.4982L89.6461 46.556H89.1262L88.9529 46.3827V40.6643L89.0107 40.6065L89.5306 40.491L89.6461 40.3755L89.7038 40.0866L89.5306 39.4513L88.9529 37.8917V17.6751L89.0107 17.5596Z" fill="#5071A9"/>
<path d="M91.5517 18.3105L92.1293 18.4261V45.5741L92.0138 45.7474H91.3784L91.2051 45.5163L91.1474 32.751V30.2095L91.2051 18.5416L91.3207 18.3683L91.5517 18.3105Z" fill="#4567A3"/>
<path d="M75.3797 5.71851H75.8996L76.1884 5.83403L76.2462 5.94955V30.5561L76.1306 31.307L75.7841 32.1734L75.4375 33.0976H75.322V5.77627L75.3797 5.71851Z" fill="#4E6FA8"/>
<path d="M66.3105 5.71851H66.9459L67.0614 5.77627L67.1192 5.94955V32.5777L66.8304 32.2889L66.3105 31.538L66.195 31.307V5.83403L66.3105 5.71851Z" fill="#4467A3"/>
<path d="M73.126 14.094H73.7036L73.8769 14.1518L73.9347 14.2673V36.2167L73.8769 37.0254L73.2415 38.7005L73.126 38.9893L73.0105 38.9315V14.2095L73.126 14.094Z" fill="#4E6FA8"/>
<path d="M68.449 40.6067H69.3154L69.3731 40.6645V63.6536L69.3154 63.8269L68.7955 64.0002L68.5067 63.7691L68.449 63.6536V40.6067Z" fill="#4467A3"/>
<path d="M7.45052 20.3323L7.85485 20.4478L7.97037 20.6211V43.4947L7.79709 43.668L7.68156 43.7258H7.27723L7.04618 43.4947V20.5056L7.16171 20.39L7.45052 20.3323Z" fill="#4467A3"/>
<path d="M68.6222 0.231201H69.2576L69.3731 0.346725V23.3937L69.3154 23.4514H68.5067L68.449 23.3937V0.404486L68.6222 0.231201Z" fill="#4467A3"/>
<path d="M4.90995 20.9675H5.48756L5.66085 21.1408L5.71861 21.4296V42.7437L5.54532 43.0903L5.48756 43.148H5.02547L4.79442 42.9747L4.73666 37.1408V27.4946L4.79442 21.0253L4.90995 20.9675Z" fill="#476AA4"/>
<path d="M86.8145 10.7439H87.2766L87.5654 10.8594L87.6231 10.9749V34.4262L87.5076 34.2529L86.8722 32.6934L86.699 32.1157V10.8594L86.8145 10.7439Z" fill="#4467A3"/>
<path d="M11.7252 13.1121L12.3028 13.1698L12.4761 13.2276L12.5339 13.3431V23.3936L12.4761 23.4514L11.783 23.5669V40.4911L12.4761 40.6066L12.5339 40.6644V50.6572L12.3606 50.946L11.9562 51.0038L11.6674 50.8305L11.6097 50.7727V13.2276L11.7252 13.1121Z" fill="#486AA5"/>
<path d="M0.288471 20.9675H0.750565L1.09714 21.0831L1.1549 21.1986V42.7437L1.03937 43.0903L0.866088 43.148H0.403994L0.230709 42.9747V21.0253L0.288471 20.9675Z" fill="#5272AA"/>
<path d="M93.5744 21.834H94.2675L94.3831 21.8917L94.4408 22.1228V41.8773L94.3253 42.2239L94.2098 42.2816H93.6899L93.5166 42.1084L93.4589 37.5452V26.3972L93.5166 21.8917L93.5744 21.834Z" fill="#4568A3"/>
<path d="M43.5526 18.4839H44.1302L44.3035 18.5416L44.3612 18.6572V23.1626L44.2457 23.5669L44.0724 23.6247V40.4333L44.3035 40.5489L44.3612 40.8954V45.4586L44.188 45.6319H43.6103L43.4371 45.4586V18.5994L43.5526 18.4839Z" fill="#496BA5"/>
<path d="M96.0572 21.7764L96.5193 21.8341L96.6926 22.0074V42.0507L96.4616 42.2818H95.9417L95.7684 42.0507V22.0074L95.8839 21.8341L96.0572 21.7764Z" fill="#4467A3"/>
<path d="M71.3939 40.5488H71.6827V60.4766L71.6249 60.7077L71.3939 60.7654H70.9895L70.8162 60.7077L70.7585 60.5921V40.6066L71.3939 40.5488Z" fill="#4467A3"/>
<path d="M70.874 3.35034H71.4516L71.6827 3.46587V23.5092L71.5671 23.5669L71.3939 23.5092L70.7585 23.4514V3.46587L70.874 3.35034Z" fill="#4467A3"/>
<path d="M55.1628 21.3142L55.6827 21.4297L55.7404 21.5453V42.5128L55.5094 42.7438H54.9895L54.874 42.6861L54.8162 42.5128V40.6644L55.1628 40.4333L55.2206 40.0868V37.1409L55.0473 36.8521L54.8162 36.7366L54.7585 36.6211L54.8162 21.4875L55.1628 21.3142Z" fill="#4467A3"/>
<path d="M66.195 38.4116L66.4838 38.7004L67.0037 39.4513L67.1192 39.7401V58.0506L67.0037 58.3394L66.9459 58.3972H66.426L66.195 58.1661V38.4116Z" fill="#4467A3"/>
<path d="M52.8528 17.7908L53.3727 17.8485L53.4882 18.0796V36.6789L53.4305 36.7366H52.564V17.9063L52.8528 17.7908Z" fill="#4467A3"/>
<path d="M79.8259 37.0833H80.6924L80.7501 37.141V55.1627L80.5768 55.3937H80.057L79.8259 55.1049V37.0833Z" fill="#4467A3"/>
<path d="M50.6569 18.426L51.119 18.4838L51.1767 18.6571V36.6787L51.119 36.7365H50.2525V18.6571L50.3681 18.4838L50.6569 18.426Z" fill="#4467A3"/>
<path d="M75.3797 40.6067H76.1884L76.2462 40.6645V56.8955L76.1884 58.224L75.9574 58.3973H75.4953L75.3797 58.3395L75.322 58.1663V40.6645L75.3797 40.6067Z" fill="#4F70A8"/>
<path d="M98.311 23.2202L98.8886 23.278L99.0041 23.5668V40.491L98.8886 40.7798L98.8308 40.8375H98.1954L98.0799 40.6643V23.3357L98.311 23.2202Z" fill="#4467A3"/>
<path d="M100.447 23.2781H101.198L101.256 23.4514V40.4333L101.141 40.7799L101.083 40.8376H100.447L100.332 40.6066V23.3358L100.447 23.2781Z" fill="#4467A3"/>
<path d="M84.6783 9.99292L85.1981 10.0507L85.3136 10.1662V28.5344L85.1981 28.4767L84.736 27.2637L84.3894 26.2817V10.1662L84.6783 9.99292Z" fill="#4467A3"/>
<path d="M48.2894 18.1372L48.7515 18.195L48.9247 18.3683V36.6787L48.867 36.7365H48.1161L48.0583 23.9134L48.0005 23.5668V18.3105L48.0583 18.195L48.2894 18.1372Z" fill="#4467A3"/>
<path d="M16.1734 40.6067H16.9821L17.0398 40.6645V57.2421L16.9821 57.4154L16.8665 57.4731H16.4044L16.1156 57.1843V40.6645L16.1734 40.6067Z" fill="#4467A3"/>
<path d="M16.3467 6.64258H16.8665L17.0398 6.81586V23.3935L16.9821 23.4512H16.1156V6.87363L16.3467 6.64258Z" fill="#4467A3"/>
<path d="M23.1639 14.0361H23.6838L23.8571 14.1517L23.9148 14.3249V33.6174L23.7993 33.4441L23.2794 32.5776L22.9906 32.1733V30.8448L23.4527 29.8051L23.626 29.1697V28.0722L23.5105 27.2636L23.2217 26.3394L22.9906 25.8195V14.1517L23.1639 14.0361Z" fill="#4769A4"/>
<path d="M84.3894 37.4297L84.505 37.5452L84.9093 38.7582L85.2559 39.6824L85.3136 39.9712V53.834L85.2559 54.0073L85.1403 54.0651H84.5627L84.4472 54.0073L84.3894 53.834V37.4297Z" fill="#4467A3"/>
<path d="M82.1375 37.0833H83.0039L83.0616 37.141V52.0435L82.9461 52.2746L82.7151 52.3901L82.3107 52.3324L82.1375 52.1591V37.0833Z" fill="#4467A3"/>
<path d="M78.2671 37.0254L78.4981 37.0832V52.4478L78.4404 52.6211L78.3249 52.6788H77.7472L77.574 52.5055V38.8738L77.8628 37.8918L78.2093 37.0832L78.2671 37.0254Z" fill="#4467A3"/>
<path d="M77.9205 11.3792L78.3826 11.4369L78.4981 11.5524V25.0109L78.3826 25.5885L77.7472 27.2059L77.6317 27.4947H77.574V11.4947L77.9205 11.3792Z" fill="#4467A3"/>
<path d="M79.9992 8.72217H80.6346L80.7501 8.89545V23.3936L80.6924 23.4514H79.8259V8.95321L79.9992 8.72217Z" fill="#4467A3"/>
<path d="M41.2409 14.094H41.934L42.1073 14.2673V29.2853L41.9918 29.2276L41.5297 28.0146L41.1831 27.2637V14.1518L41.2409 14.094Z" fill="#4567A3"/>
<path d="M42.0495 34.8882H42.1073V49.6752L41.9918 49.964L41.6452 50.0795L41.2409 49.9062L41.1831 49.8485V36.7943L41.7607 35.5813L42.0495 34.8882Z" fill="#4467A3"/>
<path d="M32.1736 9.41528H32.7512L32.9823 9.58857V23.1626L32.5779 23.2781H32.0581V9.53081L32.1736 9.41528Z" fill="#4467A3"/>
<path d="M32.1159 40.7798L32.809 40.8375L32.9823 40.9531V54.3538L32.9245 54.6426L32.809 54.7004H32.3469L32.1159 54.5848L32.0581 54.4693V40.8375L32.1159 40.7798Z" fill="#4467A3"/>
<path d="M61.6315 32.1157L61.9203 32.4045L62.4979 33.271L62.5557 33.3865V46.0363L62.4402 46.2673L62.0358 46.3251L61.6893 46.2096L61.6315 46.0941V32.1157Z" fill="#4467A3"/>
<path d="M86.699 40.6067H87.5654L87.6231 40.6645V52.9099L87.5076 53.3143L86.93 53.372L86.7567 53.3143L86.699 53.1987V40.6067Z" fill="#4467A3"/>
<path d="M23.8571 37.4297H23.9148V49.7329L23.7415 50.0217L23.6838 50.0795H23.2217L22.9906 49.8485V38.9893L23.3372 38.4694L23.6838 37.8918L23.8571 37.4297Z" fill="#4467A3"/>
<path d="M82.4263 11.7258L82.9461 11.7836L83.0616 11.9569V23.4515H82.1375V11.8414L82.4263 11.7258Z" fill="#4467A3"/>
<path d="M36.9682 12.0723L37.3147 12.13L37.5458 12.3611V23.9712L37.257 23.9134L36.6216 23.6246V12.3033L36.7949 12.13L36.9682 12.0723Z" fill="#4467A3"/>
<path d="M37.3147 40.1445H37.5458V51.7546L37.3147 51.9857H36.8526L36.6216 51.7546V40.4911L37.3147 40.1445Z" fill="#4467A3"/>
<path d="M63.9988 17.3286H64.6919L64.8652 17.5597V29.5163L64.5764 29.2275L63.941 28.2456V17.3864L63.9988 17.3286Z" fill="#4467A3"/>
<path d="M18.4254 40.6067H19.3496V51.5814L19.2918 51.8702L19.0608 51.9858H18.6564L18.4254 51.7547L18.3676 49.0977V45.5164L18.4254 40.6067Z" fill="#476AA4"/>
<path d="M18.5407 12.1301H19.0605L19.2916 12.2457L19.3493 12.3612V23.567L18.4829 23.5092L18.4252 23.4514V12.2457L18.5407 12.1301Z" fill="#4467A3"/>
<path d="M34.4256 12.2456H35.1187L35.292 12.4767V23.3359L34.3678 23.2203L34.3101 19.4658V17.7907L34.3678 12.3034L34.4256 12.2456Z" fill="#4668A4"/>
<path d="M39.1046 14.0361H39.6822L39.7978 14.1517V25.473L39.5667 25.4152L39.1624 25.0109L38.8736 24.7798V14.2672L39.1046 14.0361Z" fill="#4467A3"/>
<path d="M39.6822 38.585L39.7978 38.6427V49.9063L39.5667 50.0795L39.0469 50.0218L38.8736 49.733V39.3359L39.3934 38.8738H39.5089L39.6245 38.6427L39.6822 38.585Z" fill="#4467A3"/>
<path d="M35.0608 40.7798H35.2918V51.4657L35.1185 51.87L34.7719 51.9278L34.4254 51.8123L34.3676 51.6968V40.8953L35.0608 40.7798Z" fill="#4467A3"/>
<path d="M63.941 35.2925L64.1721 35.5235L64.8075 36.4477L64.8652 36.5632V46.3827L64.7497 46.7293L64.5186 46.8448L64.1721 46.7871L63.941 46.6138V35.2925Z" fill="#4467A3"/>
<path d="M25.2426 34.946L25.3581 35.0616L25.6469 35.928L26.109 36.7944L26.1668 37.0255V46.4984L26.0513 46.7294L25.6469 46.845L25.3004 46.6717L25.2426 46.5562V34.946Z" fill="#4467A3"/>
<path d="M25.3581 17.3286H25.9935L26.1668 17.5019V26.8015L26.0513 27.3792L25.5892 28.3033L25.4159 28.7077L25.3004 29.1698H25.2426V17.5019L25.3581 17.3286Z" fill="#4567A3"/>
<path d="M11.6097 40.3179H11.7252L11.783 40.4912L12.4761 40.6067L12.5339 40.6644V50.6572L12.3606 50.946L11.9562 51.0038L11.6674 50.8305L11.6097 50.7727V40.3179Z" fill="#4467A3"/>
<path d="M21.0237 13.9785L21.428 14.0363L21.6013 14.2673V24.4334L21.3125 24.3179L20.6771 23.9713V14.2673L20.8504 14.0363L21.0237 13.9785Z" fill="#4467A3"/>
<path d="M21.428 39.9712H21.6013V49.7329L21.4858 50.0217L21.428 50.0795H20.9659L20.6771 49.7907V40.3178L21.197 40.0867L21.428 39.9712Z" fill="#4467A3"/>
<path d="M32.809 27.0903L32.9823 27.1481V36.9098L32.8668 36.9676L32.1159 36.7943L32.0581 36.7365V27.3214L32.809 27.0903Z" fill="#4467A3"/>
<path d="M34.3676 27.1482L34.9452 27.206L35.2918 27.3792V36.7366L34.8297 36.9099L34.3676 36.9677V27.1482Z" fill="#4467A3"/>
<path d="M13.9194 40.6067H14.7281L14.7858 40.6645V49.733L14.6703 50.0219L14.497 50.0796H14.0927L13.8617 49.8486V40.6645L13.9194 40.6067Z" fill="#4F70A8"/>
<path d="M73.0105 40.6067H73.8769L73.9347 40.6645V49.8486L73.8769 49.9641L73.7036 50.0219H73.1838L73.0105 49.7908V40.6067Z" fill="#4F70A8"/>
<path d="M14.0349 14.0361H14.4393L14.7281 14.0939L14.7858 14.2094V23.3935L14.7281 23.4513H13.9194L13.8617 23.3935V14.1517L14.0349 14.0361Z" fill="#4F70A8"/>
<path d="M27.4946 38.585L27.7834 38.7582V38.8738L28.0145 38.9893L28.361 39.2203L28.4188 39.3359V47.2492L28.3033 47.6536H27.7834L27.4946 47.3647V38.585Z" fill="#4E6FA8"/>
<path d="M27.7256 16.4622H28.3033L28.4188 16.5777V24.6643L28.361 24.8376L28.0145 25.0687L27.5524 25.4152L27.4946 25.3575V16.6354L27.7256 16.4622Z" fill="#4F70A8"/>
<path d="M29.8061 40.1445L30.1527 40.2023L30.6725 40.4333L30.7303 40.4911V47.8268L30.6148 48.1734L30.557 48.2312H30.0372L29.8639 48.1734L29.8061 48.0579V40.1445Z" fill="#4F70A8"/>
<path d="M62.0358 17.7908L62.4979 17.8485L62.5557 17.9641V26.3395L62.2669 26.0507L61.6893 25.1843L61.6315 25.0688V17.9641L61.747 17.8485L62.0358 17.7908Z" fill="#4567A3"/>
<path d="M29.9216 15.8845H30.557L30.6725 15.9423L30.7303 16.1156V23.5668L30.4415 23.7401L30.0372 23.9134H29.8061V15.9423L29.9216 15.8845Z" fill="#5070A8"/>
<path d="M45.8063 40.6067H46.615L46.6728 40.6645V47.076L46.615 47.4803L46.3839 47.6536H45.9219L45.7486 47.4803V40.6645L45.8063 40.6067Z" fill="#4F70A8"/>
<path d="M45.8641 16.4622H46.3839L46.615 16.5777L46.6728 16.8087V23.3936L46.5572 23.4513H45.8063L45.7486 23.3936V16.5777L45.8641 16.4622Z" fill="#4F70A8"/>
<path d="M30.6148 28.1301L30.7303 28.1879V35.8702H30.557L30.0949 35.3503L29.8061 34.8882V29.2276L30.2104 28.5922L30.6148 28.1301Z" fill="#5272AA"/>
<path d="M36.6216 28.1877L36.9682 28.4766L37.4302 29.1119L37.5458 29.4585V34.6571L37.257 35.2347L36.7949 35.8123L36.6216 35.9278V28.1877Z" fill="#4568A3"/>
<path d="M52.564 40.6067H53.4305L53.4882 40.6645V46.0363L53.2572 46.2673L52.9106 46.3251L52.6218 46.2096L52.564 46.0941V40.6067Z" fill="#4467A3"/>
<path d="M48.0005 40.6067H48.867L48.9247 40.6645V45.5742L48.867 45.863L48.7515 45.9208H48.2316L48.0005 45.7475V40.6067Z" fill="#4467A3"/>
<path d="M50.2525 40.6067H51.119L51.1767 40.6645V45.4587L51.0034 45.632L50.5991 45.6897L50.3103 45.5164L50.2525 45.3432V40.6067Z" fill="#4467A3"/>
<path d="M57.068 40.6067H57.9344L57.9922 40.6645V45.0543L57.8767 45.1699H57.2413L57.068 44.8811V40.6067Z" fill="#5070A9"/>
<path d="M57.1835 18.946H57.8767L57.9922 19.0616V23.3937L57.9344 23.4515H57.1258L57.068 23.3937V19.2349L57.1835 18.946Z" fill="#4F70A8"/>
<path d="M16.1156 33.6174H16.9821L17.0398 33.6752V36.7943L16.9821 36.8521H16.1156V33.6174Z" fill="#4467A3"/>
<path d="M16.1156 26.9749H17.0398V29.9785L16.9821 30.0362H16.1734L16.1156 29.9785V26.9749Z" fill="#4769A4"/>
<path d="M18.4252 33.6753L18.8872 33.7331L19.2916 33.9063L19.3493 34.0219V36.5056L19.1183 36.6789L18.714 36.7944H18.4252V33.6753Z" fill="#4568A3"/>
<path d="M59.4373 40.6067H60.2459L60.3037 40.6645V42.8594L60.2459 43.0904L60.1304 43.1482H59.5528L59.3795 42.9749V40.6645L59.4373 40.6067Z" fill="#4F70A8"/>
<path d="M59.495 20.9675H60.1304L60.3037 21.1408V23.3935L60.2459 23.4513H59.4373L59.3795 23.3935V21.0831L59.495 20.9675Z" fill="#4F70A8"/>
<path d="M18.4252 27.0903L18.8295 27.2636L19.1761 27.5524L19.3493 27.9568V29.0542L19.1761 29.4586L18.6562 29.9207H18.4252V27.0903Z" fill="#4568A3"/>
<path d="M80.6924 30.4983H80.7501V33.2131L80.6924 33.2709H79.9415L79.8259 33.2131L79.8837 32.751L80.288 31.5958L80.6346 30.7293L80.6924 30.4983Z" fill="#4B6DA6"/>
<path d="M82.1375 31.5381L82.253 31.7114L82.7728 33.0977V33.2132L82.6573 33.2709H82.1375V31.5381Z" fill="#5575AB"/>
</g>
<defs>
<clipPath id="clip0_200_698">
<rect width="101.43" height="64" fill="white"/>
</clipPath>
</defs>
</svg>
