<svg width="188" height="40" viewBox="0 0 188 40" fill="none" xmlns="http://www.w3.org/2000/svg">
<g clip-path="url(#clip0_200_898)">
<path d="M20.0734 0.00512695C8.99765 0.00512695 0 8.96764 0 20.0001C0 31.0326 8.99765 39.9951 20.0734 39.9951C31.1491 39.9951 40.1468 31.0326 40.1468 20.0001C40.1468 8.96764 31.1491 0.00512695 20.0734 0.00512695ZM20.0734 37.9912C10.103 37.9912 2.01176 29.9095 2.01176 20.0001C2.01176 10.0907 10.103 2.00903 20.0734 2.00903C30.0437 2.00903 38.135 10.0907 38.135 20.0001C38.135 29.9095 30.0437 37.9912 20.0734 37.9912Z" fill="black"/>
<path d="M27.2368 7.18376C27.1705 7.13972 27.0821 7.1177 26.9936 7.1177C26.7284 7.1177 26.5294 7.31588 26.5294 7.58014V13.8341C26.5294 14.0543 26.3525 14.2305 26.1315 14.2305H13.9725C13.7514 14.2305 13.5967 14.0543 13.5746 13.8341V7.58014C13.5746 7.49205 13.5524 7.42599 13.5082 7.33791C13.3756 7.1177 13.0882 7.05163 12.8671 7.18376C8.37935 9.93637 5.66016 14.7149 5.66016 19.9999C5.66016 25.285 8.37935 30.0635 12.9113 32.8161C12.9777 32.8602 13.0661 32.8822 13.1545 32.8822C13.4198 32.8822 13.6188 32.684 13.6188 32.4197V26.1658C13.6188 25.9456 13.7956 25.7914 14.0167 25.7694H26.1757C26.3968 25.7694 26.5736 25.9456 26.5736 26.1658V32.4197C26.5736 32.5078 26.5957 32.5739 26.6399 32.662C26.7726 32.8822 27.06 32.9482 27.281 32.8161C31.813 30.0635 34.5322 25.285 34.5322 19.9999C34.5322 14.7149 31.7688 9.93637 27.2368 7.18376ZM11.2754 27.8394L11.3417 28.5881L10.8554 27.9935C7.11923 23.3031 7.11923 16.6748 10.8554 11.9843L11.2754 11.4558L11.3417 11.3898L11.2754 12.1605C11.2091 12.7771 11.187 13.4157 11.187 14.0543V25.9236C11.187 26.5622 11.2312 27.2008 11.2754 27.8394ZM26.5294 22.9948C26.5294 23.215 26.3525 23.3912 26.1315 23.3912H13.9725C13.7514 23.3912 13.5967 23.215 13.5746 22.9948V17.0051C13.5746 16.7849 13.7514 16.6087 13.9725 16.6087H26.1315C26.3525 16.6087 26.5294 16.7849 26.5294 17.0051V22.9948ZM29.2707 27.9935L28.7843 28.5881L28.8507 27.8394C28.917 27.2228 28.9391 26.5842 28.9391 25.9456V14.0543C28.9391 13.4157 28.917 12.7771 28.8507 12.1605L28.8285 11.8302L28.8064 11.4778V11.3898L29.2707 11.9843C31.0835 14.2305 32.0783 17.0932 32.0783 19.9779C32.0783 22.8627 31.0835 25.7474 29.2707 27.9935Z" fill="black"/>
<path d="M70.4347 19.6478C70.3242 19.6037 70.1915 19.5597 70.1915 19.4275C70.1915 19.3395 70.2358 19.2734 70.3242 19.2294C70.4789 19.1633 74.3035 17.798 74.3035 13.3057C74.3035 8.30699 70.9211 5.33416 65.2174 5.33416H51.4004V34.7101H66.4775C70.8769 34.7101 75.6078 31.6051 75.6078 26.6064C75.6078 21.8278 71.9822 20.1542 70.4347 19.6478ZM58.3642 11.3459C58.3642 11.2358 58.4526 11.1477 58.5631 11.1477H64.0457C65.8585 11.1477 67.0965 12.3588 67.0965 14.1646C67.0965 15.5739 65.9912 17.0933 63.9131 17.0933H58.5631C58.4526 17.0933 58.3642 17.0052 58.3642 16.8951V11.3459ZM64.0457 28.9186H58.5631C58.4526 28.9186 58.3642 28.8305 58.3642 28.7204V22.8628C58.3642 22.7527 58.4526 22.6646 58.5631 22.6646H63.9131C66.5439 22.6646 68.0471 23.7877 68.0471 25.7696C68.0471 27.8175 66.6544 28.9186 64.0457 28.9186ZM122.276 17.0273L121.215 16.8071C118.827 16.3006 116.506 15.662 116.506 13.614C116.506 11.5661 118.43 10.6412 120.331 10.6412C122.564 10.6412 124.774 11.6321 126.454 13.3498L130.832 9.03368C128.953 6.96371 125.614 4.58545 120.22 4.58545C113.721 4.58545 109.343 8.26294 109.343 13.7462C109.343 19.5377 113.92 21.7177 117.766 22.5325L118.805 22.7527C122.542 23.5455 124.31 24.14 124.31 26.254C124.31 28.1478 122.608 29.403 120.088 29.403C117.125 29.403 114.494 28.1038 112.505 25.6595L108.017 30.0416C110.405 32.8603 113.566 35.4147 120.176 35.4147C125.813 35.4147 131.539 32.1556 131.539 25.9017C131.517 19.4936 127.14 18.0402 122.276 17.0273ZM180.529 5.33416V16.0804C180.529 16.1905 180.44 16.2786 180.33 16.2786H171.266C171.155 16.2786 171.067 16.1905 171.067 16.0804V5.33416H163.639V34.7101H171.067V23.1711C171.067 23.061 171.155 22.9729 171.266 22.9729H180.33C180.44 22.9729 180.529 23.061 180.529 23.1711V34.7101H188.001V5.33416H180.529ZM148.694 28.6984C145.356 28.6984 141.753 25.9237 141.753 19.8239C141.753 14.2526 145.135 11.3459 148.473 11.3459C150.905 11.3459 152.607 12.3588 153.956 14.605L159.66 10.8394C156.741 6.56733 153.271 4.62949 148.429 4.62949C138.945 4.62949 134.7 12.2708 134.7 19.8239C134.7 29.0067 140.316 35.4147 148.341 35.4147C154.31 35.4147 157.029 33.2347 159.881 29.2048L154.133 25.3512C152.851 27.4211 151.458 28.6984 148.694 28.6984ZM92.2988 4.58545C84.1854 4.58545 78.7471 10.7733 78.7471 20.0001C78.7471 29.2269 84.1854 35.4147 92.2988 35.4147C100.412 35.4147 105.851 29.2269 105.851 20.0001C105.851 10.7733 100.412 4.58545 92.2988 4.58545ZM92.2988 28.6984C88.3195 28.6984 85.7551 25.2851 85.7551 20.0001C85.7551 14.7371 88.3195 11.3459 92.2988 11.3459C96.3002 11.3459 98.8868 14.7371 98.8868 20.0001C98.8868 25.2851 96.3002 28.6984 92.2988 28.6984Z" fill="#F80000"/>
</g>
<defs>
<clipPath id="clip0_200_898">
<rect width="188" height="40" fill="white"/>
</clipPath>
</defs>
</svg>
