<svg width="160" height="40" viewBox="0 0 160 40" fill="none" xmlns="http://www.w3.org/2000/svg">
<g clip-path="url(#clip0_200_904)">
<path d="M60.6599 30.8148H66.1032V10.824H60.6599V30.8148Z" fill="#F44322"/>
<path d="M85.1694 12.7422C86.4183 14.2221 87.03 16.3416 87.03 19.0756V30.9146H81.4865V19.0881C81.4865 16.3918 80.2007 15.0498 77.6414 15.0498C76.6554 15.0498 75.7562 15.4386 74.9569 16.2287C74.1583 17.0188 73.7833 18.3858 73.8333 20.3297V30.9271H68.4277V10.8861H73.8333V12.667C74.4827 12.0148 75.3066 11.4881 76.3057 11.0993C77.2917 10.7105 78.2532 10.5225 79.1647 10.5225C81.9238 10.5225 83.9212 11.2624 85.1694 12.7422Z" fill="#F44322"/>
<path d="M96.0144 23.8691C96.0144 24.7219 96.1643 25.4242 96.4517 26.0011C96.7384 26.5655 97.4124 26.8539 98.4861 26.8539C98.9733 26.8539 99.4352 26.8288 99.8595 26.7786V31.3688C98.9856 31.4691 98.174 31.5193 97.4254 31.5193C95.8768 31.5193 94.6287 31.3939 93.6672 31.1305C92.7188 30.8797 91.9695 30.3906 91.4323 29.6506C90.8958 28.9232 90.6338 27.8823 90.6338 26.5153V15.4037H88.199V10.638H90.6338V5.29541H96.0021V10.6506H99.9847V15.4162H96.0021V23.8691H96.0144Z" fill="#F44322"/>
<path d="M115.196 16.8699C114.21 15.8165 112.874 15.2897 111.201 15.2897C109.503 15.2897 108.167 15.8165 107.193 16.8699C106.22 17.9234 105.72 19.2904 105.72 20.971C105.72 22.6013 106.22 23.9433 107.231 25.0092C108.229 26.0753 109.553 26.6145 111.201 26.6145C112.899 26.6145 114.235 26.1129 115.209 25.1096C116.182 24.1063 116.682 22.7267 116.682 20.971C116.682 19.2904 116.195 17.9234 115.196 16.8699ZM116.469 28.9849C116.007 29.6119 115.221 30.1763 114.097 30.6779C112.974 31.1795 111.75 31.4304 110.414 31.4304C108.355 31.4304 106.582 30.9664 105.071 30.0509C103.56 29.1228 102.399 27.8686 101.613 26.2759C100.814 24.6832 100.414 22.9148 100.414 20.971C100.414 19.027 100.814 17.2587 101.613 15.6659C102.412 14.0732 103.56 12.8191 105.071 11.891C106.582 10.963 108.367 10.5115 110.414 10.5115C111.788 10.5115 113.011 10.7498 114.06 11.2263C115.109 11.7029 115.92 12.3049 116.469 13.0323V10.9505H121.838V30.9789H116.469V28.9849Z" fill="#F44322"/>
<path d="M138.153 16.8699C137.167 15.8165 135.831 15.2897 134.158 15.2897C132.46 15.2897 131.124 15.8165 130.15 16.8699C129.177 17.9234 128.677 19.2904 128.677 20.971C128.677 22.6013 129.177 23.9433 130.188 25.0092C131.186 26.0753 132.51 26.6145 134.158 26.6145C135.856 26.6145 137.179 26.1129 138.166 25.1096C139.139 24.1063 139.639 22.7267 139.639 20.971C139.639 19.2904 139.139 17.9234 138.153 16.8699ZM139.426 28.9849C138.964 29.6119 138.178 30.1763 137.054 30.6779C135.931 31.1795 134.707 31.4304 133.371 31.4304C131.312 31.4304 129.526 30.9664 128.028 30.0509C126.518 29.1228 125.369 27.8686 124.57 26.2759C123.771 24.6832 123.371 22.9148 123.371 20.971C123.371 19.027 123.771 17.2587 124.57 15.6659C125.369 14.0732 126.518 12.8191 128.028 11.891C129.539 10.963 131.324 10.5115 133.371 10.5115C134.745 10.5115 135.968 10.7498 137.017 11.2263C138.066 11.7029 138.877 12.3049 139.426 13.0323V10.9505H144.794V30.9789H139.426V28.9849Z" fill="#F44322"/>
<path d="M65.4452 7.9244C64.8709 8.50127 64.1593 8.77719 63.3354 8.77719C62.4863 8.77719 61.7747 8.48876 61.1755 7.9244C60.5763 7.34752 60.2891 6.65773 60.2891 5.83C60.2891 5.02736 60.5887 4.33758 61.1755 3.77322C61.7623 3.19632 62.4863 2.92041 63.3354 2.92041C64.1593 2.92041 64.8585 3.20886 65.4452 3.77322C66.0195 4.35012 66.3191 5.02736 66.3191 5.83C66.3191 6.65773 66.032 7.36003 65.4452 7.9244Z" fill="#2A7CB7"/>
<path d="M52.0327 12.5292C51.4085 11.4005 50.5471 10.5351 49.4484 9.94566C48.3498 9.35628 47.0764 9.05526 45.6157 9.05526C43.9927 9.05526 42.5694 9.41897 41.3085 10.1338C40.06 10.8486 39.0737 11.8896 38.3746 13.219C37.6755 14.5609 37.3134 16.1035 37.3134 17.8467C37.3134 19.6526 37.6755 21.2204 38.3871 22.5497C39.0988 23.8916 40.0975 24.92 41.3833 25.6349C42.6568 26.3497 44.1424 26.7134 45.8403 26.7134C47.9252 26.7134 49.6357 26.1616 50.959 25.0705C52.2949 23.9794 53.1563 22.4494 53.5808 20.4929H44.1925V16.3668H58.9991V19.151C58.9991 21.6969 58.2126 24.1926 56.6895 26.2369C56.677 26.2494 56.6646 26.2745 56.6521 26.287C55.4536 27.8798 53.9055 29.159 52.0203 30.1246C50.1351 31.0903 48.0127 31.5669 45.6656 31.5669C43.0313 31.5669 40.6468 30.9774 38.5245 29.8111C36.4021 28.6448 34.7292 27.0144 33.5182 24.9326C32.3071 22.8507 31.6953 20.4804 31.6953 17.8342C31.6953 15.188 32.3071 12.8177 33.5182 10.7107C34.7292 8.61628 36.4021 6.98594 38.5245 5.80706C40.6468 4.64071 43.0189 4.05127 45.6282 4.05127C48.6994 4.05127 51.3836 4.79121 53.6433 6.27108C55.0166 7.16152 56.1277 8.27766 56.9891 9.60704C56.9891 9.65723 52.0327 12.5292 52.0327 12.5292Z" fill="#F44322"/>
<path d="M24.9441 12.54C24.9441 5.6172 19.3635 0.0112305 12.4721 0.0112305C5.5806 0.0112305 0 5.6172 0 12.54C0 16.3275 1.67293 19.7262 4.31966 22.0213C4.31966 22.0213 4.31966 22.0213 4.30718 22.0338C5.89271 23.4008 7.82784 24.3916 9.95019 24.818C9.96272 24.818 9.97517 24.818 9.98762 24.8305C10.0626 24.8431 10.1375 24.8556 10.2123 24.8681C10.2623 24.8807 10.3123 24.8807 10.3747 24.8932C10.4122 24.8932 10.4371 24.9058 10.4746 24.9058C10.5494 24.9183 10.6244 24.9309 10.6993 24.9434H10.7117C10.9989 24.981 11.2861 25.0186 11.5857 25.0311C11.5857 25.0311 11.9228 25.0688 12.0975 25.0562C12.2224 25.0562 12.3472 25.0562 12.4721 25.0562C12.6219 25.0562 12.7592 25.0562 12.909 25.0437C14.9815 25.2444 16.6045 27.0002 16.6045 29.1322C16.6045 31.4021 14.7692 33.2457 12.5095 33.2457C10.2498 33.2457 8.41462 31.4021 8.41462 29.1322C8.41462 27.9407 8.92648 26.8622 9.72547 26.1223C7.39084 25.6457 5.28097 24.5797 3.53313 23.0872C2.37207 24.818 1.6979 26.8998 1.6979 29.1447C1.6979 35.1394 6.54192 39.993 12.4971 39.993C18.4522 39.993 23.2962 35.1394 23.2962 29.1447C23.2962 26.4107 22.285 23.915 20.6245 22.0087C23.2712 19.7136 24.9441 16.3275 24.9441 12.54Z" fill="#F44322"/>
<path d="M22.7973 3.32345C24.258 3.27328 25.4316 1.47988 25.4316 0H18.4277C20.1007 0.815185 21.5863 1.94391 22.7973 3.32345Z" fill="#F44322"/>
<path d="M153.527 5.09082C152.372 5.09082 151.245 5.43461 150.285 6.07871C149.325 6.72282 148.577 7.63831 148.136 8.70944C147.693 9.78049 147.578 10.9591 147.803 12.0962C148.029 13.2333 148.585 14.2778 149.401 15.0976C150.216 15.9174 151.256 16.4756 152.388 16.7018C153.52 16.928 154.694 16.8119 155.759 16.3683C156.826 15.9246 157.737 15.1733 158.379 14.2093C159.019 13.2453 159.362 12.112 159.362 10.9526C159.36 9.39853 158.745 7.90857 157.651 6.80962C156.557 5.71069 155.074 5.09255 153.527 5.09082ZM153.527 15.9965C152.533 15.9965 151.562 15.7007 150.737 15.1465C149.911 14.5923 149.267 13.8045 148.888 12.8828C148.508 11.9612 148.408 10.947 148.602 9.96864C148.796 8.99024 149.274 8.09147 149.976 7.38609C150.678 6.68067 151.573 6.20028 152.547 6.00566C153.521 5.81105 154.531 5.91093 155.448 6.29269C156.365 6.67445 157.149 7.32093 157.702 8.15038C158.253 8.97984 158.547 9.95504 158.547 10.9526C158.546 12.2899 158.017 13.572 157.075 14.5176C156.134 15.4632 154.858 15.9951 153.527 15.9965ZM155.562 9.86209C155.562 9.46442 155.405 9.08318 155.124 8.80202C154.845 8.52093 154.465 8.36282 154.069 8.36253H151.898C151.79 8.36253 151.687 8.40558 151.61 8.48231C151.534 8.55904 151.491 8.66304 151.491 8.77147V13.1338C151.491 13.2422 151.534 13.3462 151.61 13.423C151.687 13.4996 151.79 13.5427 151.898 13.5427C152.006 13.5427 152.11 13.4996 152.186 13.423C152.262 13.3462 152.305 13.2422 152.305 13.1338V11.3616H153.818L154.791 13.3164C154.825 13.3843 154.877 13.4415 154.941 13.4814C155.006 13.5214 155.079 13.5426 155.155 13.5427C155.218 13.5428 155.28 13.5281 155.336 13.4997C155.433 13.4512 155.507 13.3662 155.541 13.2633C155.575 13.1605 155.567 13.0481 155.519 12.9511L154.667 11.2351C154.932 11.1184 155.159 10.9264 155.318 10.6826C155.477 10.4387 155.562 10.1536 155.562 9.86209ZM154.069 10.5437H152.305V9.18049H154.069C154.249 9.18049 154.422 9.25227 154.549 9.38013C154.676 9.50791 154.748 9.68129 154.748 9.86209C154.748 10.0428 154.676 10.2162 154.549 10.3441C154.422 10.4718 154.249 10.5437 154.069 10.5437Z" fill="#F44322"/>
</g>
<defs>
<clipPath id="clip0_200_904">
<rect width="160" height="40" fill="white"/>
</clipPath>
</defs>
</svg>
