<svg width="166" height="26" viewBox="0 0 166 26" fill="none" xmlns="http://www.w3.org/2000/svg">
<g clip-path="url(#clip0_200_919)">
<path d="M12.2924 26C4.85903 26 0 20.7509 0 13.0345C0 5.07079 4.8245 0 12.2924 0C19.6893 0 24.5867 4.99985 24.5867 13.0709C24.5867 20.7854 19.6913 26 12.2924 26ZM12.2924 22.4648C17.2243 22.4648 20.0826 18.9297 20.0826 13.0729C20.0826 7.21605 17.2243 3.53709 12.2924 3.53709C7.32404 3.53709 4.53676 7.10869 4.53676 13.0729C4.53868 18.8932 7.39693 22.4648 12.2924 22.4648Z" fill="#0B335F"/>
<path d="M36.595 25.2511C36.524 25.4294 36.3801 25.5367 36.2017 25.5367H31.6631C31.4847 25.5367 31.3408 25.4294 31.2698 25.2511L24.8723 7.39503C24.8013 7.25124 24.9068 7.10938 25.0507 7.10938H29.1252C29.3036 7.10938 29.4474 7.21673 29.482 7.39503L34.0571 21.8597L38.918 7.39503C38.989 7.21673 39.1329 7.10938 39.3113 7.10938H42.8141C42.956 7.10938 43.0635 7.25316 42.9925 7.39503L36.595 25.2511Z" fill="#0B335F"/>
<path d="M59.5759 19.2157C59.7197 19.2157 59.8617 19.3595 59.8252 19.5014C59.3246 23.0365 56.2879 25.9295 51.356 25.9295C45.4227 25.9295 42.2422 21.9649 42.2422 16.3573C42.2422 10.5369 45.6376 6.67773 51.2121 6.67773C56.9305 6.67773 60.1456 10.535 60.253 16.8212C60.253 16.9631 60.1092 17.1069 59.9672 17.1069H46.5315C46.7099 21.0351 48.3174 22.8927 51.427 22.8927C53.6771 22.8927 55.1427 21.7866 55.6434 19.4994C55.6798 19.3212 55.8582 19.2138 56.0002 19.2138H59.5759V19.2157ZM51.2486 9.67995C48.6761 9.67995 47.1396 11.2501 46.6734 14.2159H55.6088C55.4304 11.8214 54.0723 9.67995 51.2486 9.67995Z" fill="#0B335F"/>
<path d="M61.9675 25.4981C61.8255 25.4981 61.6816 25.3543 61.6816 25.2125L61.7891 16.2116L61.6816 7.3909C61.6816 7.24711 61.8255 7.10525 61.9675 7.10525H65.6851C65.829 7.10525 65.9709 7.24903 65.9709 7.3909L65.8635 10.3203C67.2217 8.10598 69.6521 6.96338 72.261 6.96338C72.6178 6.96338 72.9401 6.9998 73.2259 7.03623C73.3698 7.07074 73.5117 7.25095 73.5117 7.39281V10.1784C73.5117 10.3222 73.3679 10.4276 73.2259 10.4276C72.9765 10.3912 72.6543 10.3912 72.3684 10.3912C68.9021 10.3912 66.1148 12.3907 65.9709 16.5701L66.0074 25.2125C66.0074 25.3543 65.8635 25.4981 65.7216 25.4981H61.9675Z" fill="#0B335F"/>
<path d="M82.1608 25.9297C76.9795 25.9297 73.7261 23.7519 73.5842 19.5361C73.5842 19.3924 73.7261 19.2505 73.87 19.2505H77.4802C77.6241 19.2505 77.766 19.3943 77.766 19.5361C77.8735 21.9651 79.4445 23.0713 82.3412 23.0713C84.7716 23.0713 86.2372 22.107 86.2372 20.3931C86.2372 16.3231 74.0158 19.9292 74.0158 12.3584C74.0158 8.64306 76.9815 6.67993 81.664 6.67993C86.2391 6.67993 89.4177 8.57405 89.7036 12.4294C89.7036 12.5732 89.5597 12.715 89.4177 12.715H85.9878C85.8459 12.715 85.702 12.6077 85.6675 12.4294C85.3817 10.5372 84.0235 9.46551 81.593 9.46551C79.4848 9.46551 78.1267 10.2496 78.1267 12.0364C78.1267 16.001 90.3481 12.2511 90.3481 20.0365C90.3443 23.7864 86.8415 25.9297 82.1608 25.9297Z" fill="#0B335F"/>
<path d="M108.641 19.2157C108.784 19.2157 108.926 19.3595 108.89 19.5014C108.389 23.0365 105.353 25.9295 100.421 25.9295C94.4873 25.9295 91.3068 21.9649 91.3068 16.3573C91.3068 10.5369 94.7022 6.67773 100.277 6.67773C105.995 6.67773 109.21 10.535 109.318 16.8212C109.318 16.9631 109.174 17.1069 109.032 17.1069H95.5961C95.7745 21.0351 97.382 22.8927 100.492 22.8927C102.742 22.8927 104.207 21.7866 104.708 19.4994C104.744 19.3212 104.923 19.2138 105.065 19.2138H108.641V19.2157ZM100.315 9.67995C97.7427 9.67995 96.2061 11.2501 95.74 14.2159H104.675C104.495 11.8214 103.137 9.67995 100.315 9.67995Z" fill="#0B335F"/>
<path d="M127.619 19.2157C127.763 19.2157 127.905 19.3595 127.868 19.5014C127.368 23.0365 124.331 25.9295 119.399 25.9295C113.466 25.9295 110.285 21.9649 110.285 16.3573C110.285 10.5369 113.681 6.67773 119.255 6.67773C124.974 6.67773 128.189 10.535 128.296 16.8212C128.296 16.9631 128.152 17.1069 128.01 17.1069H114.574C114.753 21.0351 116.36 22.8927 119.47 22.8927C121.72 22.8927 123.186 21.7866 123.686 19.4994C123.723 19.3212 123.901 19.2138 124.043 19.2138H127.619V19.2157ZM119.292 9.67995C116.719 9.67995 115.183 11.2501 114.716 14.2159H123.652C123.473 11.8214 122.115 9.67995 119.292 9.67995Z" fill="#0B335F"/>
<path d="M126.475 25.0357L127.262 24.75C128.369 24.3225 128.727 23.8566 130.657 20.6071L142.092 0.856934H144.701L147.273 20.9637C147.667 23.9985 147.952 24.2861 148.988 24.75L149.667 25.0357L149.56 25.4996H140.126L140.233 25.0357L141.306 24.7136C142.913 24.2496 143.306 23.8931 143.021 20.9637L142.627 17.1065H134.766L133.442 19.5009C131.442 23.1435 131.298 24.2861 132.729 24.7136L133.943 25.0357L133.836 25.4996H126.402L126.475 25.0357ZM142.449 15.6437L141.699 8.46407C141.557 7.1796 141.413 5.71492 141.484 4.96532H141.413C141.127 5.71492 140.412 7.00131 139.591 8.46407L135.587 15.6437H142.449Z" fill="#0B335F"/>
<path d="M151.17 25.0362L152.242 24.7141C153.815 24.2137 154.03 23.93 154.673 20.9642L157.853 5.96467C158.461 2.96437 158.247 2.57136 156.996 2.21478L155.852 1.85628L155.923 1.39233H165.751L165.643 1.85628L164.571 2.21478C162.998 2.71515 162.785 2.99888 162.141 5.92824L158.96 20.9642C158.352 23.9645 158.567 24.3575 159.818 24.7141L160.961 25.0362L160.89 25.5001H151.062L151.17 25.0362Z" fill="#0B335F"/>
</g>
<defs>
<clipPath id="clip0_200_919">
<rect width="165.75" height="26" fill="white"/>
</clipPath>
</defs>
</svg>
