<svg width="123" height="40" viewBox="0 0 123 40" fill="none" xmlns="http://www.w3.org/2000/svg">
<path d="M4.88001 6.32011C4.88001 2.08011 8.12001 0.000105858 12.76 0.000105858H18.48V2.88011H15.28V34.8001H18.48V37.6801H12.76C8.12001 37.6801 4.88001 35.5601 4.88001 31.3201V24.0401C4.88001 21.3201 3.16001 20.2801 4.91738e-06 20.2801V17.3601C3.16001 17.2801 4.88001 16.3601 4.88001 13.6401V6.32011ZM8.36001 31.0801C8.36001 33.5201 9.76001 34.6401 12.24 34.8001V2.88011C9.76001 3.04011 8.36001 4.20011 8.36001 6.64011V13.8001C8.36001 16.5201 6.92001 18.1601 4.00001 18.6801V18.9201C6.96001 19.4401 8.36001 21.0801 8.36001 23.8001V31.0801ZM22.6984 39.3601V7.36011H25.7784V9.56011H26.3384C26.7384 8.72011 27.1984 8.09344 27.7184 7.68011C28.2384 7.26677 28.9851 7.06011 29.9584 7.06011C31.2784 7.06011 32.2651 7.44677 32.9184 8.22011C33.5851 8.99344 33.9451 10.2734 33.9984 12.0601C34.0251 12.9401 34.0451 14.0001 34.0584 15.2401C34.0851 16.4668 34.0984 17.7668 34.0984 19.1401C34.0984 20.5001 34.0851 21.8334 34.0584 23.1401C34.0451 24.4468 34.0251 25.6134 33.9984 26.6401C33.9451 28.4134 33.5651 29.6934 32.8584 30.4801C32.1518 31.2668 31.1384 31.6601 29.8184 31.6601C29.0051 31.6601 28.3318 31.4668 27.7984 31.0801C27.2651 30.6801 26.7784 30.0401 26.3384 29.1601H25.7784V39.3601H22.6984ZM28.7384 29.2801C29.4451 29.2801 29.9784 29.0934 30.3384 28.7201C30.7118 28.3334 30.9118 27.7134 30.9384 26.8601C30.9784 25.4868 31.0051 24.1468 31.0184 22.8401C31.0451 21.5334 31.0518 20.2601 31.0384 19.0201C31.0384 17.7668 31.0251 16.5468 30.9984 15.3601C30.9851 14.1601 30.9651 12.9868 30.9384 11.8401C30.9118 10.9868 30.7451 10.3734 30.4384 10.0001C30.1318 9.61344 29.6251 9.42011 28.9184 9.42011C28.1851 9.42011 27.5384 9.61344 26.9784 10.0001C26.4318 10.3734 26.0318 10.9668 25.7784 11.7801V26.9401C26.0584 27.7801 26.4251 28.3801 26.8784 28.7401C27.3451 29.1001 27.9651 29.2801 28.7384 29.2801ZM42.2928 31.6201C40.9328 31.6201 39.9328 31.2334 39.2928 30.4601C38.6528 29.6868 38.2661 28.5134 38.1328 26.9401C38.1195 26.6068 38.1061 26.2668 38.0928 25.9201C38.0928 25.5734 38.0995 25.2468 38.1128 24.9401C38.1661 23.9801 38.3328 23.1268 38.6128 22.3801C38.8928 21.6201 39.3328 20.9268 39.9328 20.3001C40.5328 19.6734 41.3595 19.0801 42.4128 18.5201C42.9995 18.2001 43.5995 17.8934 44.2128 17.6001C44.8395 17.3068 45.4728 17.0334 46.1128 16.7801V11.9401C46.1128 11.0868 45.9461 10.4668 45.6128 10.0801C45.2928 9.68011 44.7061 9.48011 43.8528 9.48011C43.1061 9.48011 42.5528 9.65344 42.1928 10.0001C41.8328 10.3334 41.6328 10.9534 41.5928 11.8601C41.5795 12.1534 41.5661 12.5334 41.5528 13.0001C41.5528 13.4534 41.5528 13.9201 41.5528 14.4001C41.5661 14.8801 41.5795 15.3001 41.5928 15.6601H38.6128C38.5995 15.1934 38.5861 14.6268 38.5728 13.9601C38.5595 13.2801 38.5595 12.6734 38.5728 12.1401C38.6128 10.9534 38.8128 9.98677 39.1728 9.24011C39.5461 8.49344 40.1195 7.94677 40.8928 7.60011C41.6661 7.25344 42.6861 7.08011 43.9528 7.08011C45.2595 7.08011 46.2928 7.26677 47.0528 7.64011C47.8128 8.01344 48.3528 8.60677 48.6728 9.42011C48.9928 10.2201 49.1528 11.2668 49.1528 12.5601V31.3601H46.0928V29.1401H45.5928C45.2861 29.9401 44.8795 30.5534 44.3728 30.9801C43.8795 31.4068 43.1861 31.6201 42.2928 31.6201ZM43.3728 29.2801C44.0261 29.2801 44.5795 29.0934 45.0328 28.7201C45.4861 28.3334 45.8395 27.7801 46.0928 27.0601V19.1801C45.6395 19.3534 45.1661 19.5601 44.6728 19.8001C44.1928 20.0401 43.6728 20.3734 43.1128 20.8001C42.3528 21.3334 41.8461 21.9401 41.5928 22.6201C41.3395 23.2868 41.1928 24.0601 41.1528 24.9401C41.1395 25.1801 41.1328 25.4601 41.1328 25.7801C41.1461 26.0868 41.1595 26.4001 41.1728 26.7201C41.2395 27.5468 41.4595 28.1801 41.8328 28.6201C42.2195 29.0601 42.7328 29.2801 43.3728 29.2801ZM54.1031 31.3601V7.36011H57.1831V9.72011H57.8031C58.0165 8.81344 58.3698 8.18011 58.8631 7.82011C59.3565 7.46011 60.0231 7.28011 60.8631 7.28011C61.1031 7.28011 61.3431 7.28677 61.5831 7.30011C61.8231 7.31344 62.0231 7.32677 62.1831 7.34011V9.78011H60.9031C59.7298 9.78011 58.8631 9.99344 58.3031 10.4201C57.7565 10.8334 57.3831 11.4934 57.1831 12.4001V31.3601H54.1031ZM68.1506 31.6201C66.7906 31.6201 65.7906 31.2334 65.1506 30.4601C64.5106 29.6868 64.124 28.5134 63.9906 26.9401C63.9773 26.6068 63.964 26.2668 63.9506 25.9201C63.9506 25.5734 63.9573 25.2468 63.9706 24.9401C64.024 23.9801 64.1906 23.1268 64.4706 22.3801C64.7506 21.6201 65.1906 20.9268 65.7906 20.3001C66.3906 19.6734 67.2173 19.0801 68.2706 18.5201C68.8573 18.2001 69.4573 17.8934 70.0706 17.6001C70.6973 17.3068 71.3306 17.0334 71.9706 16.7801V11.9401C71.9706 11.0868 71.804 10.4668 71.4706 10.0801C71.1506 9.68011 70.564 9.48011 69.7106 9.48011C68.964 9.48011 68.4106 9.65344 68.0506 10.0001C67.6906 10.3334 67.4906 10.9534 67.4506 11.8601C67.4373 12.1534 67.424 12.5334 67.4106 13.0001C67.4106 13.4534 67.4106 13.9201 67.4106 14.4001C67.424 14.8801 67.4373 15.3001 67.4506 15.6601H64.4706C64.4573 15.1934 64.444 14.6268 64.4306 13.9601C64.4173 13.2801 64.4173 12.6734 64.4306 12.1401C64.4706 10.9534 64.6706 9.98677 65.0306 9.24011C65.404 8.49344 65.9773 7.94677 66.7506 7.60011C67.524 7.25344 68.544 7.08011 69.8106 7.08011C71.1173 7.08011 72.1506 7.26677 72.9106 7.64011C73.6706 8.01344 74.2106 8.60677 74.5306 9.42011C74.8506 10.2201 75.0106 11.2668 75.0106 12.5601V31.3601H71.9506V29.1401H71.4506C71.144 29.9401 70.7373 30.5534 70.2306 30.9801C69.7373 31.4068 69.044 31.6201 68.1506 31.6201ZM69.2306 29.2801C69.884 29.2801 70.4373 29.0934 70.8906 28.7201C71.344 28.3334 71.6973 27.7801 71.9506 27.0601V19.1801C71.4973 19.3534 71.024 19.5601 70.5306 19.8001C70.0506 20.0401 69.5306 20.3734 68.9706 20.8001C68.2106 21.3334 67.704 21.9401 67.4506 22.6201C67.1973 23.2868 67.0506 24.0601 67.0106 24.9401C66.9973 25.1801 66.9906 25.4601 66.9906 25.7801C67.004 26.0868 67.0173 26.4001 67.0306 26.7201C67.0973 27.5468 67.3173 28.1801 67.6906 28.6201C68.0773 29.0601 68.5906 29.2801 69.2306 29.2801ZM79.9609 31.3601V7.36011H83.0409V9.56011H83.6209C84.0476 8.72011 84.5209 8.09344 85.0409 7.68011C85.5743 7.26677 86.3343 7.06011 87.3209 7.06011C88.2943 7.06011 89.0876 7.26677 89.7009 7.68011C90.3143 8.09344 90.7476 8.77344 91.0009 9.72011H91.5609C91.9876 8.88011 92.5009 8.22677 93.1009 7.76011C93.7009 7.29344 94.4943 7.06011 95.4809 7.06011C96.7876 7.06011 97.7743 7.44677 98.4409 8.22011C99.1076 8.99344 99.4476 10.2734 99.4609 12.0601V31.3601H96.3809V11.8401C96.3676 10.9868 96.2009 10.3734 95.8809 10.0001C95.5609 9.61344 95.0476 9.42011 94.3409 9.42011C93.6343 9.42011 93.0143 9.62677 92.4809 10.0401C91.9609 10.4534 91.5676 11.0468 91.3009 11.8201V31.3601H88.2209V11.8401C88.2076 10.9868 88.0409 10.3734 87.7209 10.0001C87.4009 9.61344 86.8876 9.42011 86.1809 9.42011C85.4476 9.42011 84.8009 9.61344 84.2409 10.0001C83.6943 10.3734 83.2943 10.9668 83.0409 11.7801V31.3601H79.9609ZM103.554 2.88011V0.000105858H109.274C113.914 0.000105858 117.154 2.08011 117.154 6.32011V13.6401C117.154 16.3601 118.874 17.2801 122.034 17.3601V20.2801C118.874 20.2801 117.154 21.3201 117.154 24.0401V31.3201C117.154 35.5601 113.914 37.6801 109.274 37.6801H103.554V34.8001H106.754V2.88011H103.554ZM113.674 6.64011C113.674 4.20011 112.274 3.04011 109.794 2.88011V34.8001C112.274 34.6401 113.674 33.5201 113.674 31.0801V23.8001C113.674 21.0801 115.074 19.4401 118.034 18.9201V18.6801C115.114 18.1601 113.674 16.5201 113.674 13.8001V6.64011Z" fill="black"/>
</svg>
